Wavefont-wmin,rmin,amin.ufo
<glyph name="_4" format="2">
	<unicode hex="0104"/>
	<unicode hex="0063"/>
	<advance width="5"/>
	<outline>
		<component base="cap"/>
		<component base="cap" yOffset="40"/>
		<contour>
			<point x="0" y="0" type="line"/>
			<point x="0" y="40" type="line"/>
			<point x="5" y="40" type="line"/>
			<point x="5" y="0" type="line"/>
		</contour>
	</outline>
</glyph>
<glyph name="_7" format="2">
	<unicode hex="0107"/>
	<advance width="4"/>
	<outline>
		<component base="cap"/>
		<component base="cap" yOffset="70"/>
		<contour>
			<point x="0" y="0" type="line"/>
			<point x="0" y="70" type="line"/>
			<point x="4" y="70" type="line"/>
			<point x="4" y="0" type="line"/>
		</contour>
	</outline>
</glyph>
<glyph name="_8" format="2">
	<unicode hex="0108"/>
	<unicode hex="0065"/>
	<advance width="5"/>
	<outline>
		<component base="cap"/>
		<component base="cap" yOffset="80"/>
		<contour>
			<point x="0" y="0" type="line"/>
			<point x="0" y="80" type="line"/>
			<point x="5" y="80" type="line"/>
			<point x="5" y="0" type="line"/>
		</contour>
	</outline>
</glyph>
<glyph name="_19" format="2">
	<unicode hex="0113"/>
	<advance width="5"/>
	<outline>
		<component base="cap"/>
		<component base="cap" yOffset="190"/>
		<contour>
			<point x="0" y="0" type="line"/>
			<point x="0" y="190" type="line"/>
			<point x="5" y="190" type="line"/>
			<point x="5" y="0" type="line"/>
		</contour>
	</outline>
</glyph>
<glyph name="_20" format="2">
	<unicode hex="0114"/>
	<unicode hex="0032"/>
	<unicode hex="006B"/>
	<advance width="5"/>
	<outline>
		<component base="cap"/>
		<component base="cap" yOffset="200"/>
		<contour>
			<point x="0" y="0" type="line"/>
			<point x="0" y="200" type="line"/>
			<point x="5" y="200" type="line"/>
			<point x="5" y="0" type="line"/>
		</contour>
	</outline>
</glyph>
<glyph name="_22" format="2">
	<unicode hex="0116"/>
	<unicode hex="006C"/>
	<advance width="5"/>
	<outline>
		<component base="cap"/>
		<component base="cap" yOffset="220"/>
		<contour>
			<point x="0" y="0" type="line"/>
			<point x="0" y="220" type="line"/>
			<point x="5" y="220" type="line"/>
			<point x="5" y="0" type="line"/>
		</contour>
	</outline>
</glyph>
<glyph name="_29" format="2">
	<unicode hex="011D"/>
	<advance width="5"/>
	<outline>
		<component base="cap"/>
		<component base="cap" yOffset="290"/>
		<contour>
			<point x="0" y="0" type="line"/>
			<point x="0" y="290" type="line"/>
			<point x="5" y="290" type="line"/>
			<point x="5" y="0" type="line"/>
		</contour>
	</outline>
</glyph>
<glyph name="_30" format="2">
	<unicode hex="011E"/>
	<unicode hex="0033"/>
	<unicode hex="0070"/>
	<advance width="4"/>
	<outline>
		<component base="cap"/>
		<component base="cap" yOffset="300"/>
		<contour>
			<point x="0" y="0" type="line"/>
			<point x="0" y="300" type="line"/>
			<point x="4" y="300" type="line"/>
			<point x="4" y="0" type="line"/>
		</contour>
	</outline>
</glyph>
<glyph name="_35" format="2">
	<unicode hex="0123"/>
	<advance width="5"/>
	<outline>
		<component base="cap"/>
		<component base="cap" yOffset="350"/>
		<contour>
			<point x="0" y="0" type="line"/>
			<point x="0" y="350" type="line"/>
			<point x="5" y="350" type="line"/>
			<point x="5" y="0" type="line"/>
		</contour>
	</outline>
</glyph>
<glyph name="_38" format="2">
	<unicode hex="0126"/>
	<unicode hex="0074"/>
	<advance width="4"/>
	<outline>
		<component base="cap"/>
		<component base="cap" yOffset="380"/>
		<contour>
			<point x="0" y="0" type="line"/>
			<point x="0" y="380" type="line"/>
			<point x="4" y="380" type="line"/>
			<point x="4" y="0" type="line"/>
		</contour>
	</outline>
</glyph>
<glyph name="_49" format="2">
	<unicode hex="0131"/>
	<advance width="5"/>
	<outline>
		<component base="cap"/>
		<component base="cap" yOffset="490"/>
		<contour>
			<point x="0" y="0" type="line"/>
			<point x="0" y="490" type="line"/>
			<point x="5" y="490" type="line"/>
			<point x="5" y="0" type="line"/>
		</contour>
	</outline>
</glyph>
<glyph name="_50" format="2">
	<unicode hex="0132"/>
	<unicode hex="0035"/>
	<unicode hex="007A"/>
	<advance width="5"/>
	<outline>
		<component base="cap"/>
		<component base="cap" yOffset="500"/>
		<contour>
			<point x="0" y="0" type="line"/>
			<point x="0" y="500" type="line"/>
			<point x="5" y="500" type="line"/>
			<point x="5" y="0" type="line"/>
		</contour>
	</outline>
</glyph>
<glyph name="_53" format="2">
	<unicode hex="0135"/>
	<advance width="5"/>
	<outline>
		<component base="cap"/>
		<component base="cap" yOffset="530"/>
		<contour>
			<point x="0" y="0" type="line"/>
			<point x="0" y="530" type="line"/>
			<point x="5" y="530" type="line"/>
			<point x="5" y="0" type="line"/>
		</contour>
	</outline>
</glyph>
<glyph name="_62" format="2">
	<unicode hex="013E"/>
	<unicode hex="0046"/>
	<advance width="4"/>
	<outline>
		<component base="cap"/>
		<component base="cap" yOffset="620"/>
		<contour>
			<point x="0" y="0" type="line"/>
			<point x="0" y="620" type="line"/>
			<point x="4" y="620" type="line"/>
			<point x="4" y="0" type="line"/>
		</contour>
	</outline>
</glyph>
<glyph name="_64" format="2">
	<unicode hex="0140"/>
	<unicode hex="0047"/>
	<advance width="5"/>
	<outline>
		<component base="cap"/>
		<component base="cap" yOffset="640"/>
		<contour>
			<point x="0" y="0" type="line"/>
			<point x="0" y="640" type="line"/>
			<point x="5" y="640" type="line"/>
			<point x="5" y="0" type="line"/>
		</contour>
	</outline>
</glyph>
<glyph name="_70" format="2">
	<unicode hex="0146"/>
	<unicode hex="0037"/>
	<unicode hex="004A"/>
	<advance width="5"/>
	<outline>
		<component base="cap"/>
		<component base="cap" yOffset="700"/>
		<contour>
			<point x="0" y="0" type="line"/>
			<point x="0" y="700" type="line"/>
			<point x="5" y="700" type="line"/>
			<point x="5" y="0" type="line"/>
		</contour>
	</outline>
</glyph>
<glyph name="_72" format="2">
	<unicode hex="0148"/>
	<unicode hex="2586"/>
	<unicode hex="004B"/>
	<advance width="4"/>
	<outline>
		<component base="cap"/>
		<component base="cap" yOffset="720"/>
		<contour>
			<point x="0" y="0" type="line"/>
			<point x="0" y="720" type="line"/>
			<point x="4" y="720" type="line"/>
			<point x="4" y="0" type="line"/>
		</contour>
	</outline>
</glyph>
<glyph name="_73" format="2">
	<unicode hex="0149"/>
	<advance width="5"/>
	<outline>
		<component base="cap"/>
		<component base="cap" yOffset="730"/>
		<contour>
			<point x="0" y="0" type="line"/>
			<point x="0" y="730" type="line"/>
			<point x="5" y="730" type="line"/>
			<point x="5" y="0" type="line"/>
		</contour>
	</outline>
</glyph>
<glyph name="_74" format="2">
	<unicode hex="014A"/>
	<unicode hex="004C"/>
	<advance width="5"/>
	<outline>
		<component base="cap"/>
		<component base="cap" yOffset="740"/>
		<contour>
			<point x="0" y="0" type="line"/>
			<point x="0" y="740" type="line"/>
			<point x="5" y="740" type="line"/>
			<point x="5" y="0" type="line"/>
		</contour>
	</outline>
</glyph>
<glyph name="_75" format="2">
	<unicode hex="014B"/>
	<advance width="4"/>
	<outline>
		<component base="cap"/>
		<component base="cap" yOffset="750"/>
		<contour>
			<point x="0" y="0" type="line"/>
			<point x="0" y="750" type="line"/>
			<point x="4" y="750" type="line"/>
			<point x="4" y="0" type="line"/>
		</contour>
	</outline>
</glyph>
<glyph name="_76" format="2">
	<unicode hex="014C"/>
	<unicode hex="004D"/>
	<advance width="5"/>
	<outline>
		<component base="cap"/>
		<component base="cap" yOffset="760"/>
		<contour>
			<point x="0" y="0" type="line"/>
			<point x="0" y="760" type="line"/>
			<point x="5" y="760" type="line"/>
			<point x="5" y="0" type="line"/>
		</contour>
	</outline>
</glyph>
<glyph name="_77" format="2">
	<unicode hex="014D"/>
	<advance width="1"/>
	<outline>
		<component base="cap"/>
		<component base="cap" yOffset="770"/>
		<contour>
			<point x="0" y="0" type="line"/>
			<point x="0" y="770" type="line"/>
			<point x="1" y="770" type="line"/>
			<point x="1" y="0" type="line"/>
		</contour>
	</outline>
</glyph>
<glyph name="_79" format="2">
	<unicode hex="014F"/>
	<advance width="4"/>
	<outline>
		<component base="cap"/>
		<component base="cap" yOffset="790"/>
		<contour>
			<point x="0" y="0" type="line"/>
			<point x="0" y="790" type="line"/>
			<point x="4" y="790" type="line"/>
			<point x="4" y="0" type="line"/>
		</contour>
	</outline>
</glyph>
<glyph name="_83" format="2">
	<unicode hex="0153"/>
	<advance width="5"/>
	<outline>
		<component base="cap"/>
		<component base="cap" yOffset="830"/>
		<contour>
			<point x="0" y="0" type="line"/>
			<point x="0" y="830" type="line"/>
			<point x="5" y="830" type="line"/>
			<point x="5" y="0" type="line"/>
		</contour>
	</outline>
</glyph>
<glyph name="_85" format="2">
	<unicode hex="0155"/>
	<advance width="5"/>
	<outline>
		<component base="cap"/>
		<component base="cap" yOffset="850"/>
		<contour>
			<point x="0" y="0" type="line"/>
			<point x="0" y="850" type="line"/>
			<point x="5" y="850" type="line"/>
			<point x="5" y="0" type="line"/>
		</contour>
	</outline>
</glyph>
<glyph name="_89" format="2">
	<unicode hex="0159"/>
	<advance width="5"/>
	<outline>
		<component base="cap"/>
		<component base="cap" yOffset="890"/>
		<contour>
			<point x="0" y="0" type="line"/>
			<point x="0" y="890" type="line"/>
			<point x="5" y="890" type="line"/>
			<point x="5" y="0" type="line"/>
		</contour>
	</outline>
</glyph>
<glyph name="_94" format="2">
	<unicode hex="015E"/>
	<unicode hex="0056"/>
	<advance width="4"/>
	<outline>
		<component base="cap"/>
		<component base="cap" yOffset="940"/>
		<contour>
			<point x="0" y="0" type="line"/>
			<point x="0" y="940" type="line"/>
			<point x="4" y="940" type="line"/>
			<point x="4" y="0" type="line"/>
		</contour>
	</outline>
</glyph>
<glyph name="_95" format="2">
	<unicode hex="015F"/>
	<advance width="4"/>
	<outline>
		<component base="cap"/>
		<component base="cap" yOffset="950"/>
		<contour>
			<point x="0" y="0" type="line"/>
			<point x="0" y="950" type="line"/>
			<point x="4" y="950" type="line"/>
			<point x="4" y="0" type="line"/>
		</contour>
	</outline>
</glyph>
<glyph name="_96" format="2">
	<unicode hex="0160"/>
	<unicode hex="0057"/>
	<advance width="4"/>
	<outline>
		<component base="cap"/>
		<component base="cap" yOffset="960"/>
		<contour>
			<point x="0" y="0" type="line"/>
			<point x="0" y="960" type="line"/>
			<point x="4" y="960" type="line"/>
			<point x="4" y="0" type="line"/>
		</contour>
	</outline>
</glyph>
<glyph name="_99" format="2">
	<unicode hex="0163"/>
	<unicode hex="0059"/>
	<advance width="4"/>
	<outline>
		<component base="cap"/>
		<component base="cap" yOffset="990"/>
		<contour>
			<point x="0" y="0" type="line"/>
			<point x="0" y="990" type="line"/>
			<point x="4" y="990" type="line"/>
			<point x="4" y="0" type="line"/>
		</contour>
	</outline>
</glyph>
<glyph name="_108" format="2">
	<unicode hex="016C"/>
	<advance width="5"/>
	<outline>
		<component base="cap"/>
		<component base="cap" yOffset="1080"/>
		<contour>
			<point x="0" y="0" type="line"/>
			<point x="0" y="1080" type="line"/>
			<point x="5" y="1080" type="line"/>
			<point x="5" y="0" type="line"/>
		</contour>
	</outline>
</glyph>
<glyph name="_109" format="2">
	<unicode hex="016D"/>
	<advance width="4"/>
	<outline>
		<component base="cap"/>
		<component base="cap" yOffset="1090"/>
		<contour>
			<point x="0" y="0" type="line"/>
			<point x="0" y="1090" type="line"/>
			<point x="4" y="1090" type="line"/>
			<point x="4" y="0" type="line"/>
		</contour>
	</outline>
</glyph>
<glyph name="_113" format="2">
	<unicode hex="0171"/>
	<advance width="5"/>
	<outline>
		<component base="cap"/>
		<component base="cap" yOffset="1130"/>
		<contour>
			<point x="0" y="0" type="line"/>
			<point x="0" y="1130" type="line"/>
			<point x="5" y="1130" type="line"/>
			<point x="5" y="0" type="line"/>
		</contour>
	</outline>
</glyph>
<glyph name="_121" format="2">
	<unicode hex="0179"/>
	<advance width="5"/>
	<outline>
		<component base="cap"/>
		<component base="cap" yOffset="1210"/>
		<contour>
			<point x="0" y="0" type="line"/>
			<point x="0" y="1210" type="line"/>
			<point x="5" y="1210" type="line"/>
			<point x="5" y="0" type="line"/>
		</contour>
	</outline>
</glyph>
<glyph name="_125" format="2">
	<unicode hex="017D"/>
	<advance width="4"/>
	<outline>
		<component base="cap"/>
		<component base="cap" yOffset="1250"/>
		<contour>
			<point x="0" y="0" type="line"/>
			<point x="0" y="1250" type="line"/>
			<point x="4" y="1250" type="line"/>
			<point x="4" y="0" type="line"/>
		</contour>
	</outline>
</glyph>
<glyph name="_126" format="2">
	<unicode hex="017E"/>
	<advance width="5"/>
	<outline>
		<component base="cap"/>
		<component base="cap" yOffset="1260"/>
		<contour>
			<point x="0" y="0" type="line"/>
			<point x="0" y="1260" type="line"/>
			<point x="5" y="1260" type="line"/>
			<point x="5" y="0" type="line"/>
		</contour>
	</outline>
</glyph>
<glyph name="_127" format="2">
	<unicode hex="017F"/>
	<advance width="1"/>
	<outline>
		<component base="cap"/>
		<component base="cap" yOffset="1270"/>
		<contour>
			<point x="0" y="0" type="line"/>
			<point x="0" y="1270" type="line"/>
			<point x="1" y="1270" type="line"/>
			<point x="1" y="0" type="line"/>
		</contour>
	</outline>
</glyph>
<glyph name="_13.clip" format="2">
	<advance width="4"/>
	<outline>
		<contour>
			<point x="0" y="130"/>
			<point x="0" y="130"/>
			<point x="0" y="130" type="curve" smooth="yes"/>
			<point x="4" y="130" type="line"/>
			<point x="4" y="130"/>
			<point x="4" y="130"/>
			<point x="4" y="130" type="curve" smooth="yes"/>
			<point x="4" y="0" type="line"/>
			<point x="4" y="0"/>
			<point x="4" y="0"/>
			<point x="4" y="0" type="curve" smooth="yes"/>
			<point x="0" y="0" type="line"/>
			<point x="0" y="0"/>
			<point x="0" y="0"/>
			<point x="0" y="0" type="curve" smooth="yes"/>
			<point x="0" y="130" type="line"/>
		</contour>
	</outline>
</glyph>
<glyph name="_20.clip" format="2">
	<advance width="5"/>
	<outline>
		<contour>
			<point x="0" y="200"/>
			<point x="0" y="200"/>
			<point x="0" y="200" type="curve" smooth="yes"/>
			<point x="5" y="200" type="line"/>
			<point x="5" y="200"/>
			<point x="5" y="200"/>
			<point x="5" y="200" type="curve" smooth="yes"/>
			<point x="5" y="0" type="line"/>
			<point x="5" y="0"/>
			<point x="5" y="0"/>
			<point x="5" y="0" type="curve" smooth="yes"/>
			<point x="0" y="0" type="line"/>
			<point x="0" y="0"/>
			<point x="0" y="0"/>
			<point x="0" y="0" type="curve" smooth="yes"/>
			<point x="0" y="200" type="line"/>
		</contour>
	</outline>
</glyph>
<glyph name="_21.clip" format="2">
	<advance width="5"/>
	<outline>
		<contour>
			<point x="0" y="210"/>
			<point x="0" y="210"/>
			<point x="0" y="210" type="curve" smooth="yes"/>
			<point x="5" y="210" type="line"/>
			<point x="5" y="210"/>
			<point x="5" y="210"/>
			<point x="5" y="210" type="curve" smooth="yes"/>
			<point x="5" y="0" type="line"/>
			<point x="5" y="0"/>
			<point x="5" y="0"/>
			<point x="5" y="0" type="curve" smooth="yes"/>
			<point x="0" y="0" type="line"/>
			<point x="0" y="0"/>
			<point x="0" y="0"/>
			<point x="0" y="0" type="curve" smooth="yes"/>
			<point x="0" y="210" type="line"/>
		</contour>
	</outline>
</glyph>
<glyph name="_34.clip" format="2">
	<advance width="4"/>
	<outline>
		<contour>
			<point x="0" y="340"/>
			<point x="0" y="340"/>
			<point x="0" y="340" type="curve" smooth="yes"/>
			<point x="4" y="340" type="line"/>
			<point x="4" y="340"/>
			<point x="4" y="340"/>
			<point x="4" y="340" type="curve" smooth="yes"/>
			<point x="4" y="0" type="line"/>
			<point x="4" y="0"/>
			<point x="4" y="0"/>
			<point x="4" y="0" type="curve" smooth="yes"/>
			<point x="0" y="0" type="line"/>
			<point x="0" y="0"/>
			<point x="0" y="0"/>
			<point x="0" y="0" type="curve" smooth="yes"/>
			<point x="0" y="340" type="line"/>
		</contour>
	</outline>
</glyph>
<glyph name="_8.clip" format="2">
	<advance width="5"/>
	<outline>
		<contour>
			<point x="0" y="80"/>
			<point x="0" y="80"/>
			<point x="0" y="80" type="curve" smooth="yes"/>
			<point x="5" y="80" type="line"/>
			<point x="5" y="80"/>
			<point x="5" y="80"/>
			<point x="5" y="80" type="curve" smooth="yes"/>
			<point x="5" y="0" type="line"/>
			<point x="5" y="0"/>
			<point x="5" y="0"/>
			<point x="5" y="0" type="curve" smooth="yes"/>
			<point x="0" y="0" type="line"/>
			<point x="0" y="0"/>
			<point x="0" y="0"/>
			<point x="0" y="0" type="curve" smooth="yes"/>
			<point x="0" y="80" type="line"/>
		</contour>
	</outline>
</glyph>
